<?xml version="1.0" encoding="UTF-8"?>
<!DOCTYPE svg PUBLIC "-//W3C//DTD SVG 1.1//EN" "http://www.w3.org/Graphics/SVG/1.1/DTD/svg11.dtd">
<!-- Creator: CorelDRAW -->
<svg xmlns="http://www.w3.org/2000/svg" xml:space="preserve" width="1.70666in" height="1.70666in" version="1.1" style="shape-rendering:geometricPrecision; text-rendering:geometricPrecision; image-rendering:optimizeQuality; fill-rule:evenodd; clip-rule:evenodd"
viewBox="0 0 1706.66 1706.66"
 xmlns:xlink="http://www.w3.org/1999/xlink"
 xmlns:xodm="http://www.corel.com/coreldraw/odm/2003">
 <defs>
  <style type="text/css">
   <![CDATA[
    .fil0 {fill:black}
   ]]>
  </style>
 </defs>
 <g id="Layer_x0020_1">
  <metadata id="CorelCorpID_0Corel-Layer"/>
  <path class="fil0" d="M851.44 677l232.17 -232.17c-104.96,-259.37 149.31,-521.8 412.04,-424.74 13.66,5.05 17.5,22.6 7.2,32.89l-197.61 197.61 50.32 100.5 100.47 50.32 197.62 -197.63c10.35,-10.35 27.87,-6.41 32.9,7.2 97.14,262.69 -165.39,516.98 -424.74,412.06l-185.91 185.94 -40.84 -40.83c-25.61,-25.6 -64.02,-29.39 -92.94,-0.47l-90.68 -90.68zm-42.49 398.93l-185.91 185.91c85.42,211.08 -69.46,444.72 -300.25,444.72 -21.81,0 -118.26,-6.46 -124.4,-34.44 -1.46,-6.65 0.58,-13.59 5.4,-18.43l197.63 -197.63 -50.32 -100.48 -100.5 -50.32 -197.61 197.62c-10.25,10.23 -27.83,6.52 -32.89,-7.2 -97.16,-263.96 166.12,-516.73 424.76,-412.05l232.14 -232.18 90.67 90.67c-28.91,28.91 -25.11,67.42 0.44,92.98l40.83 40.83z"/>
  <path class="fil0" d="M1428.36 1660.09c-62.13,0 -120.4,-24.02 -164.06,-67.68l-162.11 -162.11 328.08 -328.09 162.11 162.12c144.31,144.34 43.95,395.76 -164.03,395.76zm6.25 -116.17c-96.86,0 -145.96,-117.94 -77.29,-186.61 68.76,-68.76 186.61,-19.74 186.61,77.29 0,60.39 -48.93,109.32 -109.31,109.32zm0 -178.62c-91.12,0 -91.12,138.62 0,138.62 91.29,0 91.28,-138.62 0,-138.62zm-360.71 36.7l-57.75 -57.75 328.08 -328.08 57.74 57.74 -328.08 328.09zm-86.04 -86.04l-84.42 -84.42c-54.01,-54.01 309.52,-346.67 328.1,-328.07l84.4 84.4 -328.08 328.08z"/>
  <path class="fil0" d="M863.48 1278.49c-28.72,0 -45.48,-24.15 -68.97,-47.64 -20.05,-20.05 -20.06,-52.65 0,-72.69l363.63 -363.63c19.4,-19.39 53.35,-19.36 72.69,0 20.55,20.56 75.08,62.86 32.61,105.3l-363.6 363.65c-9.71,9.69 -22.61,15.01 -36.36,15.01z"/>
  <path class="fil0" d="M894.7 1106.27c-5.11,0 -10.24,-1.96 -14.15,-5.87l-88.86 -88.87c-12.07,-12.07 -15.33,-30.99 -3.43,-42.86l180.41 -180.4c11.98,-11.97 30.88,-8.52 42.83,3.45l88.88 88.85c4.1,4.1 -204.39,225.7 -205.68,225.7z"/>
  <path class="fil0" d="M843.1 962.13c-5.12,0 -10.24,-1.96 -14.13,-5.86l-430.31 -430.31 -136.36 -36.54c-5.25,-1.42 -9.7,-4.9 -12.33,-9.65l-133.25 -241.5c-4.3,-7.81 -2.93,-17.51 3.37,-23.81l94.37 -94.37c6.3,-6.3 16,-7.67 23.8,-3.37l241.5 133.23c4.77,2.62 8.25,7.08 9.65,12.33l36.53 136.36 430.31 430.31c18.62,18.6 -88.07,133.17 -113.15,133.17z"/>
 </g>
</svg>
